<svg xmlns="http://www.w3.org/2000/svg" viewBox="0 0 200 240" fill="none">
  <defs>
    <linearGradient id="goldPlate" x1="0" y1="0" x2="200" y2="240" gradientUnits="userSpaceOnUse">
      <stop offset="0" stop-color="#E8D5A8"/>
      <stop offset="0.5" stop-color="#C9A96E"/>
      <stop offset="1" stop-color="#B8964F"/>
    </linearGradient>
    <linearGradient id="slate" x1="0" y1="0" x2="0" y2="240" gradientUnits="userSpaceOnUse">
      <stop offset="0" stop-color="#2A2A2D"/>
      <stop offset="1" stop-color="#1C1C1E"/>
    </linearGradient>
    <linearGradient id="silverBarPlate" x1="0" y1="0" x2="0" y2="1">
      <stop offset="0" stop-color="#F5F5F0"/>
      <stop offset="1" stop-color="#C8C8C0"/>
    </linearGradient>
  </defs>
  <rect x="0" y="0" width="200" height="240" rx="8" fill="url(#slate)"/>
  <rect x="6" y="6" width="188" height="228" rx="5" fill="none" stroke="url(#goldPlate)" stroke-width="1" opacity="0.55"/>
  <circle cx="14" cy="14" r="3" fill="#6B6660"/>
  <circle cx="186" cy="14" r="3" fill="#6B6660"/>
  <circle cx="14" cy="226" r="3" fill="#6B6660"/>
  <circle cx="186" cy="226" r="3" fill="#6B6660"/>
  <g>
    <rect x="78" y="28" width="5" height="80" fill="url(#goldPlate)"/>
    <polygon points="124,28 130,28 89,108 83,108" fill="url(#goldPlate)"/>
    <rect x="86" y="92" width="36" height="3" fill="url(#silverBarPlate)"/>
  </g>
  <text x="100" y="138" font-family="Georgia, 'Cormorant Garamond', serif" font-size="15" font-weight="600" letter-spacing="1.5" fill="url(#goldPlate)" text-anchor="middle">КАБАЛЬ</text>
  <text x="100" y="158" font-family="Georgia, 'Cormorant Garamond', serif" font-size="13" font-weight="500" letter-spacing="1" fill="url(#goldPlate)" text-anchor="middle">АНАСТАСІЯ</text>
  <text x="100" y="176" font-family="Georgia, 'Cormorant Garamond', serif" font-size="13" font-weight="500" letter-spacing="1" fill="url(#goldPlate)" text-anchor="middle">ІГОРІВНА</text>
  <line x1="60" y1="194" x2="140" y2="194" stroke="url(#goldPlate)" stroke-width="0.8" opacity="0.6"/>
  <text x="100" y="212" font-family="Georgia, serif" font-size="9" letter-spacing="2" fill="url(#goldPlate)" text-anchor="middle" opacity="0.85">АДВОКАТ · ЛЬВІВ</text>
</svg>
